<?xml version="1.0" encoding="UTF-8" standalone="no"?>
<svg
   xmlns:dc="http://purl.org/dc/elements/1.1/"
   xmlns:cc="http://creativecommons.org/ns#"
   xmlns:rdf="http://www.w3.org/1999/02/22-rdf-syntax-ns#"
   xmlns:svg="http://www.w3.org/2000/svg"
   xmlns="http://www.w3.org/2000/svg"
   xmlns:sodipodi="http://sodipodi.sourceforge.net/DTD/sodipodi-0.dtd"
   xmlns:inkscape="http://www.inkscape.org/namespaces/inkscape"
   inkscape:version="1.0rc1 (09960d6, 2020-04-09)"
   sodipodi:docname="dd_icon_rgb.svg"
   xml:space="preserve"
   style="enable-background:new 0 0 800.55 856.85;"
   viewBox="0 0 800.55 856.85"
   y="0px"
   x="0px"
   id="Layer_1"
   version="1.1"><metadata
   id="metadata19"><rdf:RDF><cc:Work
       rdf:about=""><dc:format>image/svg+xml</dc:format><dc:type
         rdf:resource="http://purl.org/dc/dcmitype/StillImage" /><dc:title></dc:title></cc:Work></rdf:RDF></metadata><defs
   id="defs17" /><sodipodi:namedview
   inkscape:current-layer="Layer_1"
   inkscape:window-maximized="1"
   inkscape:window-y="23"
   inkscape:window-x="0"
   inkscape:cy="162.07075"
   inkscape:cx="343.42191"
   inkscape:zoom="0.37208634"
   inkscape:pagecheckerboard="true"
   showgrid="false"
   id="namedview15"
   inkscape:window-height="855"
   inkscape:window-width="1440"
   inkscape:pageshadow="2"
   inkscape:pageopacity="0"
   guidetolerance="10"
   gridtolerance="10"
   objecttolerance="10"
   borderopacity="1"
   bordercolor="#666666"
   pagecolor="#ffffff" />
<style
   id="style10"
   type="text/css">
	.st0{fill-rule:evenodd;clip-rule:evenodd;fill:#632CA6;}
</style>
<path
   id="path12"
   d="M670.38,608.27l-71.24-46.99l-59.43,99.27l-69.12-20.21l-60.86,92.89l3.12,29.24l330.9-60.97l-19.22-206.75  L670.38,608.27z M361.79,519.13l53.09-7.3c8.59,3.86,14.57,5.33,24.87,7.95c16.04,4.18,34.61,8.19,62.11-5.67  c6.4-3.17,19.73-15.36,25.12-22.31l217.52-39.46l22.19,268.56l-372.65,67.16L361.79,519.13z M765.85,422.36l-21.47,4.09L703.13,0.27  L0.27,81.77l86.59,702.68l82.27-11.94c-6.57-9.38-16.8-20.73-34.27-35.26c-24.23-20.13-15.66-54.32-1.37-75.91  c18.91-36.48,116.34-82.84,110.82-141.15c-1.98-21.2-5.35-48.8-25.03-67.71c-0.74,7.85,0.59,15.41,0.59,15.41  s-8.08-10.31-12.11-24.37c-4-5.39-7.14-7.11-11.39-14.31c-3.03,8.33-2.63,17.99-2.63,17.99s-6.61-15.62-7.68-28.8  c-3.92,5.9-4.91,17.11-4.91,17.11s-8.59-24.62-6.63-37.88c-3.92-11.54-15.54-34.44-12.25-86.49c21.45,15.03,68.67,11.46,87.07-15.66  c6.11-8.98,10.29-33.5-3.05-81.81c-8.57-30.98-29.79-77.11-38.06-94.61l-0.99,0.71c4.36,14.1,13.35,43.66,16.8,57.99  c10.44,43.47,13.24,58.6,8.34,78.64c-4.17,17.42-14.17,28.82-39.52,41.56c-25.35,12.78-58.99-18.32-61.12-20.04  c-24.63-19.62-43.68-51.63-45.81-67.18c-2.21-17.02,9.81-27.24,15.87-41.16c-8.67,2.48-18.34,6.88-18.34,6.88  s11.54-11.94,25.77-22.27c5.89-3.9,9.35-6.38,15.56-11.54c-8.99-0.15-16.29,0.11-16.29,0.11s14.99-8.1,30.53-14  c-11.37-0.5-22.25-0.08-22.25-0.08s33.45-14.96,59.87-25.94c18.17-7.45,35.92-5.25,45.89,9.17c13.09,18.89,26.84,29.15,55.98,35.51  c17.89-7.93,23.33-12.01,45.81-18.13c19.79-21.76,35.33-24.58,35.33-24.58s-7.71,7.07-9.77,18.18  c11.22-8.84,23.52-16.22,23.52-16.22s-4.76,5.88-9.2,15.22l1.03,1.53c13.09-7.85,28.48-14.04,28.48-14.04s-4.4,5.56-9.56,12.76  c9.87-0.08,29.89,0.42,37.66,1.3c45.87,1.01,55.39-48.99,72.99-55.26c22.04-7.87,31.89-12.63,69.45,24.26  c32.23,31.67,57.41,88.36,44.91,101.06c-10.48,10.54-31.16-4.11-54.08-32.68c-12.11-15.13-21.27-33.01-25.56-55.74  c-3.62-19.18-17.71-30.31-17.71-30.31S520,92.95,520,109.01c0,8.77,1.1,41.56,15.16,59.96c-1.39,2.69-2.04,13.31-3.58,15.34  c-16.36-19.77-51.49-33.92-57.22-38.09c19.39,15.89,63.96,52.39,81.08,87.37c16.19,33.08,6.65,63.4,14.84,71.25  c2.33,2.25,34.82,42.73,41.07,63.07c10.9,35.45,0.65,72.7-13.62,95.81l-39.85,6.21c-5.83-1.62-9.76-2.43-14.99-5.46  c2.88-5.1,8.61-17.82,8.67-20.44l-2.25-3.95c-12.4,17.57-33.18,34.63-50.44,44.43c-22.59,12.8-48.63,10.83-65.58,5.58  c-48.11-14.84-93.6-47.35-104.57-55.89c0,0-0.34,6.82,1.73,8.35c12.13,13.68,39.92,38.43,66.78,55.68l-57.26,6.3l27.07,210.78  c-12,1.72-13.87,2.56-27.01,4.43c-11.58-40.91-33.73-67.62-57.94-83.18c-21.35-13.72-50.8-16.81-78.99-11.23l-1.81,2.1  c19.6-2.04,42.74,0.8,66.51,15.85c23.33,14.75,42.13,52.85,49.05,75.79c8.86,29.32,14.99,60.68-8.86,93.92  c-16.97,23.63-66.51,36.69-106.53,8.44c10.69,17.19,25.14,31.25,44.59,33.9c28.88,3.92,56.29-1.09,75.16-20.46  c16.11-16.56,24.65-51.19,22.4-87.66l25.49-3.7l9.2,65.46l421.98-50.81L765.85,422.36z M509.12,244.59  c-1.18,2.69-3.03,4.45-0.25,13.2l0.17,0.5l0.44,1.13l1.16,2.62c5.01,10.24,10.51,19.9,19.7,24.83c2.38-0.4,4.84-0.67,7.39-0.8  c8.63-0.38,14.08,0.99,17.54,2.85c0.31-1.72,0.38-4.24,0.19-7.95c-0.67-12.97,2.57-35.03-22.36-46.64  c-9.41-4.37-22.61-3.02-27.01,2.43c0.8,0.1,1.52,0.27,2.08,0.46C514.82,239.55,510.31,241.84,509.12,244.59 M578.99,365.61  c-3.27-1.8-18.55-1.09-29.29,0.19c-20.46,2.41-42.55,9.51-47.39,13.29c-8.8,6.8-4.8,18.66,1.7,23.53  c18.23,13.62,34.21,22.75,51.08,20.53c10.36-1.36,19.49-17.76,25.96-32.64C585.48,380.26,585.48,369.2,578.99,365.61 M397.85,260.65  c5.77-5.48-28.74-12.68-55.52,5.58c-19.75,13.47-20.38,42.35-1.47,58.72c1.89,1.62,3.45,2.77,4.91,3.71  c5.52-2.6,11.81-5.23,19.05-7.58c12.23-3.97,22.4-6.02,30.76-7.11c4-4.47,8.65-12.34,7.49-26.59  C401.49,268.05,386.84,271.12,397.85,260.65"
   class="st0" />
<path
   inkscape:connector-curvature="0"
   id="path27"
   d="m 394.17665,782.73374 c -1.46378,-8.67428 -31.51268,-262.31979 -31.12272,-262.70975 0.21701,-0.21701 11.80175,-1.9818 25.74386,-3.92175 l 25.34929,-3.5272 7.90235,2.77745 c 41.81876,14.69812 71.14295,10.48323 97.01627,-13.94454 l 9.75206,-9.20719 106.77053,-19.36425 c 58.7238,-10.65034 107.14358,-18.99122 107.59951,-18.53528 0.93648,0.93648 23.00598,264.89137 22.21402,265.68333 -0.28068,0.28068 -82.04862,15.19704 -181.70653,33.14746 -99.65791,17.95041 -182.89831,32.96416 -184.97867,33.36389 -3.37694,0.64885 -3.86368,0.24551 -4.53997,-3.76217 z M 581.0234,732.15347 c 89.74676,-16.51929 163.25873,-30.17357 163.35993,-30.34288 0.1012,-0.16929 -4.07433,-45.51582 -9.27896,-100.77006 -5.20463,-55.25425 -9.49181,-101.91207 -9.52709,-103.68406 -0.0353,-1.77198 -0.56714,-2.9109 -1.18195,-2.53093 -0.6148,0.37997 -12.95252,25.53259 -27.41713,55.89471 -14.4646,30.36212 -26.81032,55.20386 -27.43493,55.20386 -0.62462,0 -16.071,-9.82426 -34.32532,-21.8317 -18.2543,-12.00743 -34.13148,-22.0584 -35.28261,-22.33547 -1.46759,-0.35326 -10.63979,13.93066 -30.6968,47.80425 -15.73211,26.56941 -29.30186,48.58412 -30.15498,48.92156 -0.85313,0.33746 -16.55036,-3.77499 -34.88273,-9.13878 -25.45831,-7.44872 -33.69619,-9.36162 -34.87512,-8.09825 -0.84895,0.90974 -14.76179,21.86479 -30.91743,46.56674 l -29.3739,44.91267 1.49496,15.40385 c 1.41288,14.55811 1.65482,15.36695 4.40656,14.7317 1.60137,-0.36968 76.34075,-14.18792 166.0875,-30.70721 z"
   style="fill:#ffffff;stroke-width:3.05869" /><path
   inkscape:connector-curvature="0"
   id="path29"
   d="m 230.17841,833.96239 c -11.88971,-3.10495 -25.29833,-10.41316 -28.55326,-15.56262 -1.56266,-2.47221 -5.63237,-9.06505 -9.0438,-14.65075 -6.11969,-10.02006 -17.79353,-26.49024 -24.8497,-35.05949 -1.99172,-2.41881 -11.96159,-12.56039 -22.15526,-22.53685 -22.27825,-21.80352 -24.86838,-26.33357 -24.73157,-43.25458 0.10603,-13.11475 3.58503,-24.54143 11.705,-38.44472 7.67684,-13.14458 15.51066,-21.31332 43.19652,-45.04339 49.62478,-42.53431 66.41001,-64.18167 69.17306,-89.21022 1.07192,-9.70968 -2.6332,-34.68352 -7.1378,-48.11149 -3.93624,-11.73368 -7.22807,-17.75859 -13.81626,-25.28727 l -4.25175,-4.85872 -0.77187,6.17898 -0.77187,6.17895 -5.4138,-11.16247 c -2.97759,-6.13936 -7.13013,-13.16537 -9.22785,-15.61336 -2.09773,-2.44798 -4.44717,-5.58219 -5.22098,-6.96492 -1.9306,-3.44979 -3.01955,-1.90245 -4.2556,6.04701 l -1.05174,6.76411 -2.37438,-7.6742 c -1.3059,-4.22081 -2.75951,-10.06787 -3.23024,-12.99346 -1.01353,-6.29902 -2.59504,-5.27067 -5.07681,3.30112 l -1.79283,6.19229 -2.4449,-10.45893 c -1.3447,-5.75242 -2.68775,-14.22627 -2.98456,-18.83079 -0.29681,-4.60452 -1.47673,-10.59232 -2.62205,-13.30623 -6.37973,-15.11718 -11.91726,-53.52293 -9.98471,-69.2494 l 0.88587,-7.20894 6.54187,2.95195 c 8.17722,3.68989 31.69385,4.99565 43.41328,2.41052 16.72341,-3.68893 31.89794,-13.91186 38.24406,-25.76461 2.7148,-5.07048 3.02119,-7.77056 3.01546,-26.57359 -0.007,-24.02153 -2.58107,-38.19473 -12.12387,-66.76392 -8.54083,-25.56948 -32.22106,-80.4412 -34.7149,-80.4412 -1.67838,0 -2.16863,-2.12128 5.00792,21.66915 14.50398,48.08112 22.59234,87.86755 20.93614,102.98426 -1.68356,15.36623 -5.70625,25.23347 -13.87526,34.03453 -11.50971,12.40024 -30.27827,22.74402 -41.12739,22.66623 -26.01544,-0.18653 -69.54762,-37.62883 -86.926026,-74.76564 -7.705132,-16.46548 -7.177555,-23.56677 3.079895,-41.4559 7.386041,-12.88137 8.324861,-15.72246 4.740922,-14.34718 -1.222424,0.46909 -3.890953,1.24929 -5.930064,1.73378 l -3.707475,0.88088 3.950322,-4.22081 c 2.172678,-2.32144 10.129166,-8.84244 17.681096,-14.4911 l 13.73077,-10.27029 -7.21628,-0.69765 -7.21627,-0.69766 11.16247,-5.06104 c 6.13936,-2.78358 12.62255,-5.50944 14.40707,-6.05747 4.70263,-1.44418 2.49726,-2.71812 -6.10126,-3.52441 l -7.52334,-0.70548 26.87667,-11.56074 c 14.78217,-6.35841 29.93222,-12.48033 33.66677,-13.60427 16.08376,-4.840498 29.6733,-0.67672 39.2963,12.04022 13.18158,17.41967 28.03141,27.60693 47.46469,32.56168 l 8.55598,2.18145 13.35339,-6.19774 c 7.34436,-3.40875 17.56925,-7.49987 22.72195,-9.09138 6.88263,-2.12583 11.13474,-4.54571 16.02464,-9.11964 6.61396,-6.18658 22.89449,-17.44156 25.22952,-17.44156 0.67143,0 -0.054,1.72669 -1.61193,3.8371 -2.95085,3.99716 -6.08443,12.90661 -4.53944,12.90661 0.48865,0 4.46894,-2.51156 8.84506,-5.58124 4.37614,-3.06968 8.34385,-5.58124 8.81714,-5.58124 0.47329,0 -0.0974,1.85249 -1.26827,4.11664 -4.42162,8.55049 -2.91741,8.86522 10.40111,2.17626 6.89145,-3.46109 12.88835,-6.2929 13.32645,-6.2929 0.4381,0 -0.80514,2.09991 -2.76274,4.66646 -1.95761,2.56656 -3.55928,4.99406 -3.55928,5.39446 0,1.32583 43.56571,2.07832 50.09852,0.86533 16.06483,-2.98289 25.81471,-10.85009 44.31804,-35.760361 12.79866,-17.230297 16.62454,-19.921116 32.55657,-22.897672 9.93215,-1.855609 16.54905,-0.07461 28.12353,7.569717 13.06922,8.631518 36.87123,33.107306 46.97062,48.300246 20.98623,31.57045 31.12131,64.24594 22.5775,72.78976 -7.2917,7.29169 -22.09739,0.43319 -40.05983,-18.55708 -20.42249,-21.5911 -29.86155,-38.00051 -36.57261,-63.58003 -2.14662,-8.18193 -5.25089,-17.51845 -6.8984,-20.747826 -3.08547,-6.047993 -10.8638,-15.716347 -12.64406,-15.716347 -0.55263,0 0.49426,4.469556 2.32641,9.932346 2.19023,6.530417 3.78051,15.730137 4.64299,26.859707 1.83585,23.68976 4.7882,37.63524 10.42267,49.2316 2.66683,5.48861 4.58337,10.82567 4.25898,11.86012 -0.32438,1.03446 -0.97604,3.63909 -1.44816,5.78807 l -0.85838,3.90724 -7.28118,-6.17792 c -4.00465,-3.39785 -10.73458,-8.35811 -14.95539,-11.02279 -11.77461,-7.43354 -35.33076,-19.83493 -34.72458,-18.28112 0.29672,0.7606 7.38446,7.24048 15.75051,14.39973 41.4502,35.47097 64.39404,65.03664 71.25038,91.81393 1.23658,4.82946 2.85821,17.31466 3.60359,27.74489 0.74541,10.43023 2.13395,20.35558 3.08566,22.05633 0.95171,1.70076 7.28063,10.43354 14.06424,19.40619 26.83308,35.49193 32.43849,49.26634 32.14208,78.98403 -0.20384,20.43812 -3.15987,33.54566 -11.50049,50.99514 l -5.36724,11.22882 -20.08299,3.11799 c -19.00407,2.95046 -20.43906,2.99608 -26.71071,0.84896 -3.64524,-1.24796 -6.62772,-2.43709 -6.62772,-2.64252 0,-0.20542 1.88367,-4.52783 4.18593,-9.60536 4.62905,-10.20913 4.69409,-10.51515 2.85339,-13.42526 -1.01667,-1.60736 -3.69183,0.52818 -12.63308,10.0848 -19.77689,21.138 -43.06425,36.4348 -61.19835,40.19942 -12.11169,2.51437 -33.58944,0.93456 -47.23749,-3.4746 -25.76751,-8.32448 -57.17213,-24.437 -86.60396,-44.4332 -7.89788,-5.36587 -14.72309,-9.39283 -15.16715,-8.94879 -0.44404,0.44406 -0.36733,2.56057 0.17048,4.70339 1.65036,6.57551 32.73023,34.65439 57.71898,52.14573 l 8.82819,6.17947 -27.45427,3.04512 c -15.09984,1.67482 -27.64807,3.24454 -27.88494,3.48827 -0.23687,0.24373 5.60042,47.35844 12.97175,104.69934 7.37132,57.3409 13.05575,104.60283 12.63206,105.02652 -0.82095,0.82097 -23.77798,5.08574 -24.34169,4.52202 -0.18364,-0.18362 -2.24578,-5.57261 -4.58255,-11.97552 -15.61142,-42.7763 -47.46969,-74.65388 -81.78395,-81.83353 -10.1112,-2.11558 -37.67379,-2.67475 -47.32592,-0.96012 -3.00665,0.53411 -5.72751,1.75371 -6.04634,2.7102 -0.43495,1.30484 2.67218,1.74425 12.44319,1.75973 16.3295,0.0258 27.89428,2.70974 43.02203,9.98427 27.00332,12.9852 50.00547,46.52296 62.17792,90.65713 4.83478,17.52962 6.05786,40.20231 2.84406,52.72119 -7.10678,27.68343 -24.20359,45.86844 -49.17732,52.30742 -10.61635,2.7372 -31.91723,2.74862 -42.35553,0.0227 z M 558.4915,422.64879 c 6.43673,-2.68944 12.45096,-10.14772 19.2542,-23.87722 6.92126,-13.96768 8.66936,-24.95917 4.88751,-30.73101 -2.20809,-3.36996 -2.85359,-3.50494 -16.76098,-3.50494 -24.63499,0 -57.7229,7.91679 -65.52662,15.67824 -3.54357,3.52438 -3.92831,4.72348 -3.30105,10.28848 0.82185,7.29148 3.84162,11.0479 14.9863,18.64221 10.36179,7.0608 18.10532,10.8758 26.86064,13.23341 9.42678,2.53841 14.02099,2.60189 19.6,0.27083 z M 355.05858,325.68701 c 9.6385,-3.90418 27.2326,-8.91648 37.22128,-10.6038 4.35253,-0.73525 5.58212,-1.80211 8.12059,-7.04588 5.35233,-11.05646 3.38262,-31.28981 -3.61112,-37.0941 -2.56638,-2.1299 -2.50496,-6.07958 0.12851,-8.26518 6.42021,-5.3283 -2.68106,-8.98314 -20.04847,-8.05098 -25.35941,1.36113 -44.41999,13.35273 -49.17862,30.9398 -3.61081,13.34494 2.06604,31.33205 12.63924,40.04737 2.69477,2.22126 4.91349,4.0365 4.93049,4.03386 0.017,-0.003 4.42614,-1.78511 9.79808,-3.96109 z M 556.01906,274.887 c -1.31832,-19.58447 -2.87586,-24.14031 -11.16915,-32.66964 -8.16102,-8.39332 -19.07073,-12.54933 -28.6806,-10.92575 -6.01204,1.01573 -13.79297,6.13907 -9.45321,6.22445 3.70552,0.073 4.15876,2.24052 1.59336,7.62023 -2.22895,4.67417 -2.22998,5.42644 -0.017,12.44669 2.93723,9.31798 11.81716,23.23709 17.32784,27.16103 3.38637,2.41132 5.43438,2.8154 10.98379,2.16718 3.75169,-0.43824 9.01889,-0.16166 11.70486,0.61463 9.05385,2.61668 8.76855,3.08436 7.71016,-12.63882 z"
   style="fill:#ffffff;stroke-width:3.05869" /></svg>
