<?xml version="1.0" encoding="UTF-8" standalone="no"?>
<svg
   xmlns:dc="http://purl.org/dc/elements/1.1/"
   xmlns:cc="http://creativecommons.org/ns#"
   xmlns:rdf="http://www.w3.org/1999/02/22-rdf-syntax-ns#"
   xmlns:svg="http://www.w3.org/2000/svg"
   xmlns="http://www.w3.org/2000/svg"
   xmlns:sodipodi="http://sodipodi.sourceforge.net/DTD/sodipodi-0.dtd"
   xmlns:inkscape="http://www.inkscape.org/namespaces/inkscape"
   height="440.53525"
   width="469.62997"
   version="1.1"
   id="_x31_0"
   x="0px"
   y="0px"
   viewBox="0 0 469.62997 440.53525"
   style="opacity:1"
   xml:space="preserve"
   sodipodi:docname="Pepper-kun free icon.svg"
   inkscape:version="1.0rc1 (09960d6, 2020-04-09)"><metadata
   id="metadata83"><rdf:RDF><cc:Work
       rdf:about=""><dc:format>image/svg+xml</dc:format><dc:type
         rdf:resource="http://purl.org/dc/dcmitype/StillImage" /><dc:title></dc:title></cc:Work></rdf:RDF></metadata><defs
   id="defs81" /><sodipodi:namedview
   fit-margin-bottom="0"
   fit-margin-right="0"
   fit-margin-left="0"
   fit-margin-top="0"
   inkscape:document-rotation="0"
   pagecolor="#ffffff"
   bordercolor="#666666"
   borderopacity="1"
   objecttolerance="10"
   gridtolerance="10"
   guidetolerance="10"
   inkscape:pageopacity="0"
   inkscape:pageshadow="2"
   inkscape:window-width="1440"
   inkscape:window-height="855"
   id="namedview79"
   showgrid="false"
   inkscape:pagecheckerboard="true"
   inkscape:zoom="1.0484686"
   inkscape:cx="163.09342"
   inkscape:cy="239.50696"
   inkscape:window-x="0"
   inkscape:window-y="23"
   inkscape:window-maximized="0"
   inkscape:current-layer="g76" />
<style
   type="text/css"
   id="style60">
	.st0{fill:#374149;}
</style>
<g
   transform="translate(-21.185)"
   id="g76">
	<path
   style="fill:#ffffff;fill-opacity:1;stroke-width:1.29254"
   d="m 243.46643,412.23201 c -17.74284,-1.77996 -34.29794,-6.48757 -49.57412,-14.09691 -22.14638,-11.03149 -40.60777,-26.21406 -62.74473,-51.60102 -4.52449,-5.18874 -10.75467,-12.32696 -13.84485,-15.86271 -6.31455,-7.22504 -14.74258,-14.91058 -20.925212,-19.08175 -2.275973,-1.5355 -9.182375,-5.32511 -15.347559,-8.42135 l -11.209425,-5.62952 -2.172788,-4.39418 c -5.606584,-11.33859 -10.670204,-35.55233 -14.297438,-68.36898 -2.569656,-23.24843 -4.517425,-56.73106 -3.640405,-62.57945 0.398438,-2.65697 0.41151,-2.66933 8.485953,-8.02386 19.930868,-13.21706 30.152795,-23.083 68.229114,-65.852959 4.86444,-5.464081 9.41838,-10.62772 10.11986,-11.474755 l 1.27542,-1.540064 0.29634,1.474074 c 3.06525,15.247079 6.91814,26.760474 11.37966,34.005344 12.86564,20.89191 51.09905,32.618 106.3524,32.618 49.18327,0 84.8125,-9.10293 101.37932,-25.90143 6.73668,-6.8309 11.51928,-17.713837 15.29085,-34.794766 l 1.60346,-7.261817 18.54606,20.862145 c 10.20033,11.474178 21.59776,24.011088 25.32761,27.859788 12.26436,12.65515 25.42304,23.5514 38.27579,31.69485 l 5.93569,3.76083 0.006,10.35186 c 0.0122,21.87215 -3.36007,59.11374 -7.71208,85.16813 -3.65413,21.87632 -9.07136,39.36596 -13.13476,42.40583 -1.01647,0.76043 -6.62412,3.78516 -12.46145,6.72163 -17.11162,8.608 -23.95171,14.38435 -42.36817,35.77919 -12.47194,14.48894 -28.10068,30.36434 -37.13986,37.72598 -23.37337,19.03564 -49.02328,30.49881 -75.85935,33.90221 -7.18513,0.91123 -23.51825,1.21304 -30.07111,0.55566 z"
   id="path978"
   inkscape:connector-curvature="0"
   sodipodi:nodetypes="sssssscsssssscssssscsssccssssssss" /><path
   inkscape:connector-curvature="0"
   class="st0"
   d="m 291.666,312.238 h -71.36 c -3.523,0 -5.762,3.762 -4.082,6.801 7.121,12.961 22.238,21.84 39.762,21.84 17.519,0 32.637,-8.879 39.758,-21.84 1.679,-3.039 -0.559,-6.801 -4.078,-6.801 z"
   style="fill:#000000;fill-opacity:1"
   id="path62" />
	
	
	
	
	
	<path
   class="st0"
   d="m 489.903,153.836 c -1.519,-7.836 -6.32,-14.641 -13.199,-18.797 -12.64,-7.602 -22.32,-15.203 -31.762,-24.242 -9.359,-8.961 -18.48,-19.281 -29.84,-32.16 C 408.864,71.516 401.743,63.359 393.665,54.559 349.826,6.477 299.505,0 255.986,0 c -43.523,0 -93.84,6.477 -137.68,54.558 -8.082,8.801 -15.203,16.958 -21.441,24.078 -22.719,25.762 -36.481,41.281 -61.602,56.402 -6.879,4.156 -11.68,10.961 -13.199,18.797 -0.641,3.442 -0.879,8.722 -0.879,14.882 0,18.879 2.398,46.641 3.758,58.398 7.043,64.962 17.282,80.321 21.122,86.078 l 3.602,5.442 5.598,3.281 c 5.281,3.039 9.839,5.199 13.839,7.122 9.122,4.398 15.203,7.359 27.442,21.117 1.84,2.082 4,4.641 6.321,7.36 11.758,13.762 29.519,34.64 53.839,51.762 7.84,5.602 16,10.402 24.321,14.48 65.19741,22.93725 90.49385,21.82283 149.918,-0.078 8.321,-4 16.402,-8.883 24.242,-14.402 24.398,-17.122 42.16,-38 53.918,-51.762 2.321,-2.719 4.481,-5.278 6.321,-7.36 12.242,-13.758 18.242,-16.718 27.442,-21.117 4,-1.922 8.558,-4.082 13.758,-7.122 l 5.683,-3.281 3.598,-5.442 c 3.84,-5.758 14.082,-21.117 21.122,-86.078 1.754,-15.599 5.515,-59.279 2.874,-73.279 z M 312.295,401.282 c -2.149,0.941 -4.313,1.87 -6.551,2.718 -14.641,5.598 -31.121,9.039 -49.758,9.039 -18.641,0 -35.203,-3.442 -49.84,-9.039 -2.242,-0.848 -4.406,-1.782 -6.562,-2.722 -0.882,-0.387 -1.77,-0.766 -2.637,-1.164 C 157.291,381.817 132.689,348.477 117.584,331.438 96.065,307.196 85.986,307.196 69.506,297.598 53.904,274.239 47.424,171.117 49.744,159.196 c 36.321,-21.836 51.602,-44.078 88.402,-84.637 2.477,15.278 6.238,27.199 11.278,35.68 17.762,29.84 80.402,33.039 106.562,33.039 26.078,0 88.797,-3.199 106.558,-33.039 4.254,-7.09 7.539,-16.887 9.969,-28.863 0.473,-2.184 0.965,-4.309 1.39,-6.653 36.821,40.426 52.028,62.73 88.321,84.473 2.32,11.922 -4.16,115.043 -19.762,138.402 -16.477,9.598 -26.559,9.598 -48.078,33.84 -15.176,17.11 -39.782,50.386 -79.434,68.672 -0.871,0.402 -1.765,0.784 -2.655,1.172 z m -16.325,-370.13 -2.465,6.207 c -0.402,2.398 0.879,4.797 3.039,5.918 l 38.801,20.238 c 2.238,1.144 4.68,0.558 6.383,-0.938 0.023,-0.02 0.046,-0.039 0.07,-0.059 1,-0.906 1.801,-2.05 1.945,-3.562 l -0.847,-6.758 -0.406,-3.973 c 6.281,3.828 12.57,8.363 18.695,13.93 -2,18.321 -5.68,32.321 -10.722,40.801 -11.52,19.363 -58.078,26.238 -94.477,26.238 -36.402,0 -82.961,-6.875 -94.481,-26.238 -5.121,-8.48 -8.722,-22.558 -10.801,-40.878 6.161,-5.52 12.481,-10.078 18.879,-14 l -1.359,10.878 c 0.148,1.516 0.953,2.664 1.957,3.57 0.016,0.012 0.031,0.027 0.043,0.039 1.703,1.504 4.156,2.098 6.398,0.95 l 38.801,-20.238 c 2.16,-1.122 3.359,-3.52 3.039,-5.918 l -2.122,-5.347 -0.328,-0.898 c 13.75,-2.477 27.258,-2.958 39.973,-2.958 11.547,0 23.77,0.477 36.215,2.406 1.263,0.208 2.497,0.344 3.77,0.59 z"
   style="fill:#000000;fill-opacity:1"
   id="path74"
   inkscape:connector-curvature="0"
   sodipodi:nodetypes="cccccsccccscccccccccccccccccccccsccccccccscccccccccccccccccccscccccccccccscc" />
<path
   style="fill:#09bff6;fill-opacity:1;stroke-width:1.96761"
   d="m 163.48551,254.44488 c -9.73965,-1.08698 -22.44763,-4.14921 -25.87922,-6.23608 -1.84085,-1.11949 -3.66781,-3.39119 -4.81749,-5.99023 -1.67547,-3.78768 -1.80636,-5.38979 -1.37299,-16.80568 0.93692,-24.68032 7.98979,-45.35488 19.47712,-57.09462 21.20311,-21.669 58.44396,-13.20165 73.23307,16.65078 4.63678,9.35954 6.00649,17.32304 5.55777,32.31288 -0.45048,15.04878 -2.2279,20.7871 -8.52341,27.51752 -4.9554,5.29772 -9.8537,7.72218 -18.8376,9.32383 -7.62546,1.35945 -28.0242,1.52838 -38.83725,0.3216 z"
   id="path139"
   inkscape:connector-curvature="0"
   sodipodi:nodetypes="ssssssssss" /><path
   style="fill:#09bcf5;fill-opacity:1;stroke-width:1.96761"
   d="m 311.1374,254.42876 c -8.22125,-1.19288 -13.77105,-3.54329 -18.59318,-7.87444 -5.10903,-4.58885 -7.3805,-8.64139 -9.22235,-16.45362 -1.78257,-7.56075 -1.74266,-24.18482 0.0778,-32.38834 3.85992,-17.3944 15.52692,-31.70743 30.95615,-37.97689 20.32138,-8.25732 41.43837,-1.75395 52.81945,16.26672 8.57493,13.57743 13.5338,33.02472 13.5013,52.94828 -0.0262,16.09118 -2.5354,19.4588 -16.99279,22.80659 -14.87594,3.4447 -38.82618,4.66244 -52.54633,2.6717 z"
   id="path143"
   inkscape:connector-curvature="0"
   sodipodi:nodetypes="ssscssssss" /><path
   class="st0"
   d="m 334.306,172.957 c -8.531,0 -16.25,3.863 -21.836,9.996 -1.113,1.18 -2.175,2.414 -3.125,3.766 0.039,0 0.074,0.008 0.114,0.008 -0.035,0.055 -0.078,0.098 -0.114,0.153 15.36831,6.43877 10.29488,23.95258 -5.39,18.375 -0.016,-0.007 -0.039,-0.007 -0.054,-0.019 v 0.004 c -0.051,-0.016 -0.106,-0.023 -0.157,-0.043 -0.078,0.321 -0.078,0.641 -0.078,0.961 0,18.321 13.758,33.122 30.64,33.122 16.958,0 30.637,-14.801 30.637,-33.122 0,-18.322 -13.68,-33.201 -30.637,-33.201 z"
   style="fill:#000000;fill-opacity:1"
   id="path70"
   inkscape:connector-curvature="0"
   sodipodi:nodetypes="sccccccccssss" /><path
   class="st0"
   d="m 177.666,172.957 c -6.962,0 -13.442,2.559 -18.563,6.801 h 0.481 c 6.961,0 12.562,4.321 12.562,9.68 0,5.281 -5.602,9.602 -12.562,9.602 -3.848,0 -7.207,-1.348 -9.469,-3.438 -0.316,-0.328 -0.687,-0.621 -0.942,-0.988 -0.007,0.023 -0.007,0.046 -0.019,0.07 -0.035,-0.042 -0.094,-0.078 -0.129,-0.125 -1.282,3.598 -2,7.52 -2,11.598 0,18.321 13.679,33.122 30.641,33.122 16.878,0 30.558,-14.801 30.558,-33.122 0,-18.321 -13.68,-33.2 -30.558,-33.2 z"
   style="fill:#000000;fill-opacity:1"
   id="path66"
   inkscape:connector-curvature="0"
   sodipodi:nodetypes="scsssccccssss" /><path
   style="fill:#ffffff;fill-opacity:1;stroke-width:1.29254"
   d="m 236.09606,128.29099 c -31.56261,-2.44244 -54.84247,-8.70878 -67.21777,-18.09331 -1.94577,-1.47554 -4.23904,-3.5787 -5.09615,-4.6737 -4.49819,-5.746651 -8.8474,-18.260482 -11.01515,-31.693552 -2.10659,-13.054055 -2.44189,-11.182109 2.74138,-15.304753 5.79178,-4.606626 13.07134,-9.660003 13.41725,-9.314086 0.14722,0.147216 0.003,2.098346 -0.32037,4.335846 -0.88395,6.115351 -0.79951,6.651329 1.39334,8.84418 1.49975,1.499751 2.5023,1.9991 3.98,1.982348 2.78094,-0.03153 42.77528,-21.006086 43.88946,-23.017313 1.10899,-2.001845 1.01962,-4.141929 -0.30166,-7.224368 l -1.13561,-2.649253 1.38738,-0.348208 c 8.3087,-2.085353 38.01676,-3.267044 54.83493,-2.181158 9.83582,0.635061 21.89156,2.007349 22.43833,2.554125 0.12894,0.12893 -0.30291,1.648566 -0.95965,3.37697 -1.36345,3.588302 -1.12707,5.787647 0.81042,7.540553 1.98121,1.79246 41.26934,21.971045 42.77809,21.971045 2.14881,0 4.83827,-1.715231 5.62563,-3.587799 0.4895,-1.164174 0.58687,-2.766165 0.29335,-4.826285 -0.24164,-1.696031 -0.45873,-3.952142 -0.4824,-5.013581 l -0.043,-1.929888 1.62148,1.022109 c 2.31612,1.459983 11.87014,8.582204 14.21693,10.59829 l 1.98213,1.702801 -0.98706,6.766064 c -2.65819,18.221387 -7.14093,31.321043 -12.83034,37.493313 -9.15384,9.93076 -29.82432,17.03787 -60.01795,20.63593 -7.57979,0.90325 -43.32625,1.62773 -51.00295,1.03368 z"
   id="path980"
   inkscape:connector-curvature="0"
   sodipodi:nodetypes="sssssscsssscssssssssscsscsssss" /><path
   inkscape:connector-curvature="0"
   class="st0"
   d="m 249.423,109.598 c 0,3.598 2.961,6.558 6.562,6.558 3.598,0 6.558,-2.961 6.558,-6.558 0,-3.598 -2.961,-6.558 -6.558,-6.558 -3.601,-0.001 -6.562,2.96 -6.562,6.558 z"
   style="fill:#000000;fill-opacity:1"
   id="path64" /></g>
</svg>
